<?xml version="1.0" encoding="utf-8"?>
<!-- Generated by IcoMoon.io -->
<!DOCTYPE svg PUBLIC "-//W3C//DTD SVG 1.1//EN" "http://www.w3.org/Graphics/SVG/1.1/DTD/svg11.dtd">
<svg version="1.1" xmlns="http://www.w3.org/2000/svg" xmlns:xlink="http://www.w3.org/1999/xlink" width="14" height="16" viewBox="0 0 14 16">
<path d="M6.857 1.143q1.866 0 3.442 0.92t2.496 2.496 0.92 3.442-0.92 3.442-2.496 2.496-3.442 0.92-3.442-0.92-2.496-2.496-0.92-3.442 0.92-3.442 2.496-2.496 3.442-0.92zM8 12.277v-1.696q0-0.125-0.080-0.21t-0.196-0.085h-1.714q-0.116 0-0.205 0.089t-0.089 0.205v1.696q0 0.116 0.089 0.205t0.205 0.089h1.714q0.116 0 0.196-0.085t0.080-0.21zM7.982 9.205l0.161-5.545q0-0.107-0.089-0.161-0.089-0.071-0.214-0.071h-1.964q-0.125 0-0.214 0.071-0.089 0.054-0.089 0.161l0.152 5.545q0 0.089 0.089 0.156t0.214 0.067h1.652q0.125 0 0.21-0.067t0.094-0.156z"></path>
</svg>
