<svg xmlns="http://www.w3.org/2000/svg"><symbol id="angle-down" viewBox="0 0 9 14"><path d="M8.398 5.75q0 .102-.078.18L4.68 9.57q-.08.08-.18.08t-.18-.08L.677 5.93Q.6 5.852.6 5.75t.078-.18l.39-.39q.08-.08.18-.08t.18.08L4.5 8.25l3.07-3.07q.08-.08.18-.08t.18.08l.392.39q.078.078.078.18z"/></symbol><symbol id="angle-left" viewBox="0 0 5 14"><path d="M4.898 4.25q0 .102-.078.18L1.75 7.5l3.07 3.07q.078.078.078.18t-.078.18l-.39.39q-.08.08-.18.08t-.18-.08L.427 7.68Q.35 7.602.35 7.5t.078-.18l3.64-3.64q.08-.08.18-.08t.18.08l.392.39q.078.078.078.18z"/></symbol><symbol id="angle-right" viewBox="0 0 5 14"><path d="M4.648 7.5q0 .102-.078.18L.93 11.32q-.08.08-.18.08t-.18-.08l-.392-.39Q.1 10.852.1 10.75t.078-.18l3.07-3.07-3.07-3.07Q.1 4.352.1 4.25t.078-.18l.39-.39q.08-.08.18-.08t.18.08L4.57 7.32q.078.078.078.18z"/></symbol><symbol id="angle-up" viewBox="0 0 9 14"><path d="M8.398 9.25q0 .102-.078.18l-.39.39q-.08.08-.18.08t-.18-.08L4.5 6.75 1.43 9.82q-.08.08-.18.08t-.18-.08l-.392-.39Q.6 9.352.6 9.25t.078-.18l3.64-3.64q.08-.08.18-.08t.18.08L8.32 9.07q.078.078.078.18z"/></symbol><symbol id="chevron-down" viewBox="0 0 14 14"><path d="M13.148 6.312l-5.797 5.79q-.147.147-.35.147t-.353-.15L.85 6.313q-.148-.148-.148-.355t.148-.355l1.297-1.29q.148-.147.352-.147t.35.148L7 8.46l4.147-4.147q.148-.148.352-.148t.35.148l1.298 1.29q.148.147.148.354t-.148.355z"/></symbol><symbol id="chevron-left" viewBox="0 0 10 14"><path d="M9.148 2.352L5 6.5l4.148 4.148q.148.148.148.352t-.148.352L7.85 12.65q-.147.147-.35.147t-.353-.148L1.35 6.85q-.148-.148-.148-.352t.148-.352L7.147.35Q7.295.204 7.5.204t.35.148L9.15 1.65q.148.148.148.352t-.148.352z"/></symbol><symbol id="chevron-right" viewBox="0 0 10 14"><path d="M8.648 6.852L2.85 12.65q-.147.147-.35.147t-.353-.148L.85 11.35Q.702 11.204.702 11t.148-.352L4.998 6.5.85 2.352Q.702 2.204.702 2t.148-.352L2.147.35Q2.295.204 2.5.204t.35.148L8.65 6.15q.148.148.148.352t-.148.352z"/></symbol><symbol id="chevron-up" viewBox="0 0 14 14"><path d="M13.148 10.398l-1.297 1.29q-.147.147-.35.147t-.353-.148L7 7.54l-4.15 4.147q-.147.148-.35.148t-.353-.148L.85 10.397q-.148-.147-.148-.354t.148-.355l5.797-5.79q.148-.147.352-.147t.35.15l5.798 5.788q.148.148.148.355t-.148.355z"/></symbol><symbol id="circle-o" viewBox="0 0 12 14"><path d="M6 2.75q-1.156 0-2.133.57T2.32 4.867 1.75 7t.57 2.133 1.547 1.547T6 11.25t2.133-.57T9.68 9.133 10.25 7t-.57-2.133T8.133 3.32 6 2.75zM12 7q0 1.633-.805 3.012T9.01 12.196 6 13t-3.013-.804-2.184-2.184T-.002 7t.805-3.012 2.184-2.184T6 1t3.01.804 2.185 2.184T12 7z"/></symbol><symbol id="circle" viewBox="0 0 12 14"><path d="M12 7q0 1.633-.805 3.012T9.01 12.196 6 13t-3.013-.804-2.184-2.184T-.002 7t.805-3.012 2.184-2.184T6 1t3.01.804 2.185 2.184T12 7z"/></symbol><symbol id="clock" viewBox="0 0 24 24"><path d="M12 1q2.242 0 4.277.87t3.508 2.345 2.344 3.508T23 12t-.87 4.277-2.345 3.508-3.508 2.344T12 23t-4.277-.87-3.508-2.345-2.344-3.508T1 12t.87-4.277 2.345-3.508T7.723 1.87 12 1zm0 2q-1.828 0-3.496.715t-2.87 1.918-1.92 2.87T3 12t.715 3.496 1.918 2.87 2.87 1.92T12 21t3.496-.715 2.87-1.918 1.92-2.87T21 12t-.715-3.496-1.918-2.87-2.87-1.92T12 3zm0 2q.414 0 .707.293T13 6v5.586l2.71 2.703q.29.288.29.71t-.29.71T15 16t-.71-.29l-3-3Q11 12.423 11 12V6q0-.414.293-.707T12 5z"/></symbol><symbol id="cross" viewBox="0 0 28 28"><path d="M27.745 22.495L19.25 14l8.495-8.493a.875.875 0 0 0 0-1.237L23.732.257a.875.875 0 0 0-1.237 0L14 8.75 5.508.258a.875.875 0 0 0-1.237 0L.257 4.27a.875.875 0 0 0 0 1.237L8.75 14 .258 22.496a.876.876 0 0 0 0 1.237l4.013 4.013a.875.875 0 0 0 1.237 0L14 19.25l8.495 8.495a.875.875 0 0 0 1.237 0l4.013-4.013a.875.875 0 0 0 0-1.237z"/></symbol><symbol id="pencil" viewBox="0 0 32 32"><path d="M27 0a5 5 0 0 1 4 8l-2 2-7-7 2-2c.836-.628 1.874-1 3-1zM2 23l-2 9 9-2 18.5-18.5-7-7L2 23zm20.362-11.638l-14 14-1.724-1.724 14-14 1.724 1.724z"/></symbol><symbol id="quill" viewBox="0 0 32 32"><path d="M0 32C4 20 14.47 0 32 0c-8.22 6.594-12 22-18 22H8L2 32H0z"/></symbol><symbol id="search" viewBox="0 0 16 16"><path d="M15.504 13.616l-3.79-3.223c-.392-.353-.81-.514-1.15-.5a6 6 0 1 0-.672.672c-.015.34.147.76.5 1.15l3.223 3.79c.552.614 1.453.666 2.003.116s.498-1.452-.115-2.003zM6 10a4 4 0 1 1 0-8 4 4 0 0 1 0 8z"/></symbol><symbol id="spinner1" viewBox="0 0 32 32"><path d="M16 9.472a1.865 1.865 0 0 1-1.865-1.865V2.01a1.865 1.865 0 0 1 3.73 0v5.597c0 1.03-.835 1.865-1.865 1.865zM16 31.155a1.166 1.166 0 0 1-1.166-1.166v-5.597a1.166 1.166 0 0 1 2.332 0v5.596c0 .643-.522 1.165-1.166 1.165zM11.805 10.48a1.75 1.75 0 0 1-1.516-.875L7.49 4.76a1.75 1.75 0 0 1 3.03-1.75l2.798 4.846a1.75 1.75 0 0 1-1.513 2.624zM22.995 29.164a1.05 1.05 0 0 1-.91-.525l-2.798-4.847a1.05 1.05 0 0 1 1.817-1.05l2.798 4.847a1.05 1.05 0 0 1-.908 1.574zM8.73 13.436c-.278 0-.558-.07-.815-.22L3.07 10.42A1.63 1.63 0 1 1 4.7 7.592l4.847 2.798a1.63 1.63 0 0 1-.818 3.046zM28.114 23.927a.923.923 0 0 1-.465-.125l-4.847-2.798a.932.932 0 0 1 .933-1.615l4.846 2.797a.932.932 0 0 1-.468 1.74zM7.607 17.515H2.01a1.515 1.515 0 0 1 0-3.03h5.597a1.515 1.515 0 0 1 0 3.03zM29.99 16.933h-5.597a.933.933 0 0 1 0-1.866h5.596a.933.933 0 0 1 0 1.866zM3.886 24.394a1.4 1.4 0 0 1-.7-2.61l4.845-2.8a1.398 1.398 0 1 1 1.4 2.424l-4.846 2.798c-.22.127-.46.188-.698.188zM23.27 12.736a.934.934 0 0 1-.468-1.74l4.846-2.798a.933.933 0 0 1 .933 1.615l-4.845 2.798a.925.925 0 0 1-.465.126zM9.004 29.397a1.283 1.283 0 0 1-1.11-1.924l2.8-4.846a1.283 1.283 0 0 1 2.22 1.283l-2.798 4.846a1.28 1.28 0 0 1-1.112.64zM20.196 9.664a.932.932 0 0 1-.806-1.4l2.8-4.846a.932.932 0 0 1 1.613.932l-2.798 4.846a.932.932 0 0 1-.81.466z"/></symbol><symbol id="spinner2" viewBox="0 0 32 32"><path d="M16 0C7.163 0 0 7.163 0 16s7.163 16 16 16 16-7.163 16-16S24.837 0 16 0zm0 8a8 8 0 1 1 0 16 8 8 0 0 1 0-16zm9.546 17.546c-2.55 2.55-5.94 3.954-9.546 3.954s-6.996-1.404-9.546-3.954S2.5 19.606 2.5 16a13.41 13.41 0 0 1 3.954-9.546l2.12 2.12c-4.093 4.095-4.093 10.756 0 14.85C10.56 25.407 13.195 26.5 16 26.5s5.44-1.093 7.425-3.076c4.094-4.094 4.094-10.755 0-14.85l2.12-2.12c2.55 2.55 3.955 5.94 3.955 9.546s-1.404 6.996-3.954 9.546z"/></symbol><symbol id="spinner3" viewBox="0 0 32 32"><path d="M12 4a4 4 0 1 1 8 0 4 4 0 0 1-8 0zm12.72 12a3.28 3.28 0 0 1 6.56 0 3.28 3.28 0 0 1-6.56 0zm-3.207 8.485a2.972 2.972 0 1 1 5.945 0 2.972 2.972 0 0 1-5.945 0zM13.308 28a2.692 2.692 0 1 1 5.383 0 2.692 2.692 0 0 1-5.382 0zm-8.23-3.515a2.44 2.44 0 1 1 4.876 0 2.44 2.44 0 0 1-4.877 0zM1.79 16a2.208 2.208 0 1 1 4.416 0 2.208 2.208 0 0 1-4.416 0zm3.723-8.485a2 2 0 0 1 4 0 2 2 0 0 1-4 0zm22.593 0a3.623 3.623 0 1 1-7.246 0 3.623 3.623 0 0 1 7.246 0z"/></symbol><symbol id="spinner4" viewBox="0 0 32 32"><path d="M16 32c-4.274 0-8.292-1.664-11.314-4.686S0 20.274 0 16c0-3.026.85-5.973 2.456-8.522a16.06 16.06 0 0 1 6.386-5.79l1.344 2.68a13.044 13.044 0 0 0-5.192 4.71A12.953 12.953 0 0 0 3 15.997c0 7.17 5.832 13 13 13s13-5.83 13-13c0-2.458-.69-4.852-1.994-6.92a13.05 13.05 0 0 0-5.192-4.71l1.344-2.68a16.047 16.047 0 0 1 6.386 5.79A15.953 15.953 0 0 1 32 16c0 4.274-1.664 8.292-4.686 11.314S20.274 32 16 32z"/></symbol><symbol id="spinner5" viewBox="0 0 32 32"><path d="M16 0C7.29 0 .204 6.96.005 15.624.19 8.066 5.937 2 13 2c7.18 0 13 6.268 13 14a3 3 0 0 0 6 0c0-8.837-7.163-16-16-16zm0 32c8.71 0 15.796-6.96 15.995-15.624C31.81 23.934 26.063 30 19 30c-7.18 0-13-6.268-13-14a3 3 0 0 0-6 0c0 8.837 7.163 16 16 16z"/></symbol><symbol id="user" viewBox="0 0 20 20"><path d="M7.725 2.146c-1.016.756-1.29 1.953-1.24 2.59.065.78.223 1.793.223 1.793s-.313.17-.313.853c.11 1.717.683.976.8 1.73.285 1.813.934 1.49.934 2.48 0 1.65-.68 2.42-2.804 3.334C3.196 15.845 1 17 1 19v1h18v-1c0-2-2.197-3.155-4.328-4.072-2.123-.914-2.8-1.684-2.8-3.334 0-.99.646-.667.93-2.48.12-.754.693-.013.804-1.73 0-.684-.314-.854-.314-.854s.158-1.014.22-1.793c.066-.817-.397-2.56-2.3-3.096-.332-.34-.557-.88.467-1.423-2.24-.105-2.762 1.067-3.955 1.93z"/></symbol></svg>